<svg width="1280" height="8210" viewBox="0 0 1280 8210" fill="none" xmlns="http://www.w3.org/2000/svg">
<g clip-path="url(#clip0_229_1515)">
<path d="M1280 0H0V8210H1280V0Z" fill="white"/>
<rect x="30" y="-222" width="1296" height="7928" fill="url(#paint0_linear_229_1515)"/>
<path fill-rule="evenodd" clip-rule="evenodd" d="M-30.787 3742C-73.1003 3778.12 -122.955 3805.14 -203.1 3809.46C-404.974 3820.36 -603.148 4161.35 -677 4330.49L-581.614 4649.76C-544.436 4551.75 -379.74 4347.84 -18.3851 4316.37C294.311 4289.13 409.401 4192.28 514.752 4103.62C561.582 4064.22 606.487 4026.43 665.969 3997.09C820.604 3920.83 1055.75 3884.95 1154 3876.54L1016.85 3742H-30.787Z" fill="url(#paint1_linear_229_1515)"/>
<path d="M1439.5 3925.02C1475.43 3779.35 1482.58 4318.48 1564 4293.26L1707 4433.54C1608.75 4441.95 1373.6 4477.83 1218.97 4554.09C1025.67 4649.42 986.309 4834.02 534.615 4873.37C173.26 4904.84 8.56412 5108.75 -28.6144 5206.76L-124 4887.49C-50.1477 4718.35 148.026 4377.36 349.9 4366.46C602.243 4352.84 554.298 4114.27 916.157 4074.93C1278.02 4035.59 1394.58 4107.1 1439.5 3925.02Z" fill="url(#paint2_linear_229_1515)"/>
<circle cx="1154" cy="4957" r="349.5" stroke="url(#paint3_linear_229_1515)" stroke-opacity="0.3"/>
<circle cx="1154" cy="4957" r="306.643" stroke="url(#paint4_linear_229_1515)" stroke-opacity="0.3"/>
<circle cx="1154" cy="4957" r="259.89" stroke="url(#paint5_linear_229_1515)" stroke-opacity="0.3"/>
<circle cx="1154" cy="4957" r="205.344" stroke="url(#paint6_linear_229_1515)" stroke-opacity="0.3"/>
<path d="M788.5 5808.2C497.3 5670.2 156.167 5750.7 22 5808.2L-195 6197.2C-36.6667 6141.7 354.5 6098.5 652.5 6369.7C950.5 6640.9 1287.67 6586.36 1419 6525.2V6197.2C974.5 6169.2 1152.5 5980.7 788.5 5808.2Z" fill="url(#paint7_linear_229_1515)"/>
<path d="M330.587 5138.27C14.9978 5073.12 -297.387 5232.08 -414.131 5319.7L-532.888 5749.01C-392.191 5657.61 -22.3653 5523.05 331.36 5716.01C685.084 5908.96 999.762 5776.17 1112.88 5685.66L1035.25 5366.98C596.751 5444.99 725.074 5219.71 330.587 5138.27Z" fill="url(#paint8_linear_229_1515)"/>
<circle cx="156" cy="3720" r="371.5" stroke="url(#paint9_linear_229_1515)" stroke-opacity="0.3"/>
<circle cx="156" cy="3720" r="325.949" stroke="url(#paint10_linear_229_1515)" stroke-opacity="0.3"/>
<circle cx="156" cy="3720" r="276.257" stroke="url(#paint11_linear_229_1515)" stroke-opacity="0.3"/>
<circle cx="156" cy="3720" r="218.283" stroke="url(#paint12_linear_229_1515)" stroke-opacity="0.3"/>
<path d="M1211.5 1211.8C1222.3 1100.2 1318 1082.63 1364.5 1087.8L1548.05 2290.34C1550.61 2291.93 1550.41 2292.88 1548.5 2293.3L1548.05 2290.34C1537.46 2283.73 1479.68 2266 1301.5 2228.3C1025 2169.8 1180 1803.3 1225 1668.3C1270 1533.3 1198 1351.3 1211.5 1211.8Z" fill="#F0F5FF"/>
<path d="M215.5 1857.5C302.846 1689.48 87.1667 1613.83 -0.5 1608L-25 2152.5C108 2157 150 1983.5 215.5 1857.5Z" fill="#F0F5FF"/>
<rect x="59.9412" y="1049.71" width="47" height="47" rx="7.5" transform="rotate(45 59.9412 1049.71)" stroke="#88A9E0"/>
<rect x="1274.94" y="1145.71" width="47" height="47" rx="7.5" transform="rotate(45 1274.94 1145.71)" stroke="#88A9E0"/>
<circle cx="-8" cy="673" r="234" transform="rotate(-90 -8 673)" fill="url(#paint13_linear_229_1515)"/>
<circle cx="1369.5" cy="254.5" r="237.5" transform="rotate(-90 1369.5 254.5)" fill="url(#paint14_linear_229_1515)"/>
<path d="M193 1943H604.5" stroke="#3B9FDD" stroke-width="2"/>
<path d="M768 1943H1179.5" stroke="#3B9FDD" stroke-width="2"/>
<path d="M709.122 1951.43L687.058 1973.49L665 1951.43L673.534 1942.9L687.058 1956.42L700.583 1942.9L709.122 1951.43ZM687.058 1972.79L708.42 1951.43L700.583 1943.59L687.058 1957.12L673.534 1943.59L665.697 1951.43L687.058 1972.79Z" fill="#3B9FDD"/>
<path d="M687.058 1942.9L665.351 1921.19L673.534 1913L687.058 1926.52L700.583 1913L708.771 1921.19L687.058 1942.9Z" fill="#3B9FDD"/>
<path d="M193 793H604.5" stroke="#3B9FDD" stroke-width="2"/>
<path d="M768 793H1179.5" stroke="#3B9FDD" stroke-width="2"/>
<path d="M709.122 801.434L687.058 823.493L665 801.434L673.534 792.895L687.058 806.42L700.583 792.895L709.122 801.434ZM687.058 822.791L708.42 801.429L700.583 793.592L687.058 807.117L673.534 793.592L665.697 801.429L687.058 822.791Z" fill="#3B9FDD"/>
<path d="M687.058 792.896L665.351 771.188L673.534 763L687.058 776.525L700.583 763L708.771 771.188L687.058 792.896Z" fill="#3B9FDD"/>
<path d="M17.2296 2135.03C17.2296 2138.62 14.1849 2141.57 10.3825 2141.57C6.58012 2141.57 3.5354 2138.62 3.5354 2135.03C3.5354 2131.45 6.58012 2128.5 10.3825 2128.5C14.1849 2128.5 17.2296 2131.45 17.2296 2135.03Z" stroke="#3B9FDD"/>
<path d="M17.2296 2214.31C17.2296 2217.9 14.1849 2220.84 10.3825 2220.84C6.58012 2220.84 3.5354 2217.9 3.5354 2214.31C3.5354 2210.72 6.58012 2207.78 10.3825 2207.78C14.1849 2207.78 17.2296 2210.72 17.2296 2214.31Z" stroke="#3B9FDD"/>
<path d="M17.2296 2174.67C17.2296 2178.26 14.1849 2181.2 10.3825 2181.2C6.58012 2181.2 3.5354 2178.26 3.5354 2174.67C3.5354 2171.08 6.58012 2168.14 10.3825 2168.14C14.1849 2168.14 17.2296 2171.08 17.2296 2174.67Z" stroke="#3B9FDD"/>
<path d="M17.2296 2253.95C17.2296 2257.54 14.1849 2260.48 10.3825 2260.48C6.58012 2260.48 3.5354 2257.54 3.5354 2253.95C3.5354 2250.36 6.58012 2247.42 10.3825 2247.42C14.1849 2247.42 17.2296 2250.36 17.2296 2253.95Z" stroke="#3B9FDD"/>
<path d="M113.41 2135.03C113.41 2138.62 110.365 2141.57 106.563 2141.57C102.761 2141.57 99.7158 2138.62 99.7158 2135.03C99.7158 2131.45 102.761 2128.5 106.563 2128.5C110.365 2128.5 113.41 2131.45 113.41 2135.03Z" stroke="#3B9FDD"/>
<path d="M113.41 2214.31C113.41 2217.9 110.365 2220.84 106.563 2220.84C102.761 2220.84 99.7158 2217.9 99.7158 2214.31C99.7158 2210.72 102.761 2207.78 106.563 2207.78C110.365 2207.78 113.41 2210.72 113.41 2214.31Z" stroke="#3B9FDD"/>
<path d="M113.41 2174.67C113.41 2178.26 110.365 2181.2 106.563 2181.2C102.761 2181.2 99.7158 2178.26 99.7158 2174.67C99.7158 2171.08 102.761 2168.14 106.563 2168.14C110.365 2168.14 113.41 2171.08 113.41 2174.67Z" stroke="#3B9FDD"/>
<path d="M113.41 2253.95C113.41 2257.54 110.365 2260.48 106.563 2260.48C102.761 2260.48 99.7158 2257.54 99.7158 2253.95C99.7158 2250.36 102.761 2247.42 106.563 2247.42C110.365 2247.42 113.41 2250.36 113.41 2253.95Z" stroke="#3B9FDD"/>
<path d="M65.3197 2135.03C65.3197 2138.62 62.275 2141.57 58.4726 2141.57C54.6702 2141.57 51.6255 2138.62 51.6255 2135.03C51.6255 2131.45 54.6702 2128.5 58.4726 2128.5C62.275 2128.5 65.3197 2131.45 65.3197 2135.03Z" stroke="#3B9FDD"/>
<path d="M65.3197 2214.31C65.3197 2217.9 62.275 2220.84 58.4726 2220.84C54.6702 2220.84 51.6255 2217.9 51.6255 2214.31C51.6255 2210.72 54.6702 2207.78 58.4726 2207.78C62.275 2207.78 65.3197 2210.72 65.3197 2214.31Z" stroke="#3B9FDD"/>
<path d="M65.3197 2174.67C65.3197 2178.26 62.275 2181.2 58.4726 2181.2C54.6702 2181.2 51.6255 2178.26 51.6255 2174.67C51.6255 2171.08 54.6702 2168.14 58.4726 2168.14C62.275 2168.14 65.3197 2171.08 65.3197 2174.67Z" stroke="#3B9FDD"/>
<path d="M65.3197 2253.95C65.3197 2257.54 62.275 2260.48 58.4726 2260.48C54.6702 2260.48 51.6255 2257.54 51.6255 2253.95C51.6255 2250.36 54.6702 2247.42 58.4726 2247.42C62.275 2247.42 65.3197 2250.36 65.3197 2253.95Z" stroke="#3B9FDD"/>
<path d="M161.5 2135.03C161.5 2138.62 158.455 2141.57 154.653 2141.57C150.851 2141.57 147.806 2138.62 147.806 2135.03C147.806 2131.45 150.851 2128.5 154.653 2128.5C158.455 2128.5 161.5 2131.45 161.5 2135.03Z" stroke="#3B9FDD"/>
<path d="M161.5 2214.31C161.5 2217.9 158.455 2220.84 154.653 2220.84C150.851 2220.84 147.806 2217.9 147.806 2214.31C147.806 2210.72 150.851 2207.78 154.653 2207.78C158.455 2207.78 161.5 2210.72 161.5 2214.31Z" stroke="#3B9FDD"/>
<path d="M161.5 2174.67C161.5 2178.26 158.455 2181.2 154.653 2181.2C150.851 2181.2 147.806 2178.26 147.806 2174.67C147.806 2171.08 150.851 2168.14 154.653 2168.14C158.455 2168.14 161.5 2171.08 161.5 2174.67Z" stroke="#3B9FDD"/>
<path d="M161.5 2253.95C161.5 2257.54 158.455 2260.48 154.653 2260.48C150.851 2260.48 147.806 2257.54 147.806 2253.95C147.806 2250.36 150.851 2247.42 154.653 2247.42C158.455 2247.42 161.5 2250.36 161.5 2253.95Z" stroke="#3B9FDD"/>
<path d="M1233.7 2782.84C1233.7 2785.77 1231.21 2788.18 1228.1 2788.18C1224.99 2788.18 1222.5 2785.77 1222.5 2782.84C1222.5 2779.91 1224.99 2777.5 1228.1 2777.5C1231.21 2777.5 1233.7 2779.91 1233.7 2782.84Z" stroke="#3B9FDD"/>
<path d="M1233.7 2848.67C1233.7 2851.6 1231.21 2854.01 1228.1 2854.01C1224.99 2854.01 1222.5 2851.6 1222.5 2848.67C1222.5 2845.74 1224.99 2843.33 1228.1 2843.33C1231.21 2843.33 1233.7 2845.74 1233.7 2848.67Z" stroke="#3B9FDD"/>
<path d="M1233.7 2815.75C1233.7 2818.68 1231.21 2821.09 1228.1 2821.09C1224.99 2821.09 1222.5 2818.68 1222.5 2815.75C1222.5 2812.83 1224.99 2810.41 1228.1 2810.41C1231.21 2810.41 1233.7 2812.83 1233.7 2815.75Z" stroke="#3B9FDD"/>
<path d="M1233.7 2881.58C1233.7 2884.51 1231.21 2886.92 1228.1 2886.92C1224.99 2886.92 1222.5 2884.51 1222.5 2881.58C1222.5 2878.66 1224.99 2876.25 1228.1 2876.25C1231.21 2876.25 1233.7 2878.66 1233.7 2881.58Z" stroke="#3B9FDD"/>
<path d="M1273.63 2782.84C1273.63 2785.77 1271.15 2788.18 1268.03 2788.18C1264.92 2788.18 1262.43 2785.77 1262.43 2782.84C1262.43 2779.91 1264.92 2777.5 1268.03 2777.5C1271.15 2777.5 1273.63 2779.91 1273.63 2782.84Z" stroke="#3B9FDD"/>
<path d="M1273.63 2848.67C1273.63 2851.6 1271.15 2854.01 1268.03 2854.01C1264.92 2854.01 1262.43 2851.6 1262.43 2848.67C1262.43 2845.74 1264.92 2843.33 1268.03 2843.33C1271.15 2843.33 1273.63 2845.74 1273.63 2848.67Z" stroke="#3B9FDD"/>
<path d="M1273.63 2815.75C1273.63 2818.68 1271.15 2821.09 1268.03 2821.09C1264.92 2821.09 1262.43 2818.68 1262.43 2815.75C1262.43 2812.83 1264.92 2810.41 1268.03 2810.41C1271.15 2810.41 1273.63 2812.83 1273.63 2815.75Z" stroke="#3B9FDD"/>
<path d="M1273.63 2881.58C1273.63 2884.51 1271.15 2886.92 1268.03 2886.92C1264.92 2886.92 1262.43 2884.51 1262.43 2881.58C1262.43 2878.66 1264.92 2876.25 1268.03 2876.25C1271.15 2876.25 1273.63 2878.66 1273.63 2881.58Z" stroke="#3B9FDD"/>
<path d="M190 3838L480 3838" stroke="#3B9FDD" stroke-width="2"/>
<path d="M871 3838L1181 3838" stroke="#3B9FDD" stroke-width="2"/>
</g>
<defs>
<linearGradient id="paint0_linear_229_1515" x1="1276.39" y1="4116.96" x2="105.938" y2="4116.96" gradientUnits="userSpaceOnUse">
<stop stop-color="#F7F8FD"/>
<stop offset="1" stop-color="white"/>
</linearGradient>
<linearGradient id="paint1_linear_229_1515" x1="238.5" y1="3038.76" x2="238.5" y2="4649.76" gradientUnits="userSpaceOnUse">
<stop stop-color="#F0F5FF"/>
<stop offset="1" stop-color="#F2FFFD"/>
</linearGradient>
<linearGradient id="paint2_linear_229_1515" x1="791.5" y1="3595.76" x2="791.5" y2="5206.76" gradientUnits="userSpaceOnUse">
<stop stop-color="#F0F5FF"/>
<stop offset="1" stop-color="#F2FFFD"/>
</linearGradient>
<linearGradient id="paint3_linear_229_1515" x1="1154" y1="4607" x2="1154" y2="5307" gradientUnits="userSpaceOnUse">
<stop offset="0.216667" stop-color="#BD84FB"/>
<stop offset="1" stop-color="#4CD0C2"/>
</linearGradient>
<linearGradient id="paint4_linear_229_1515" x1="1154" y1="4649.86" x2="1154" y2="5264.14" gradientUnits="userSpaceOnUse">
<stop offset="0.216667" stop-color="#BD84FB"/>
<stop offset="1" stop-color="#4CD0C2"/>
</linearGradient>
<linearGradient id="paint5_linear_229_1515" x1="1154" y1="4696.61" x2="1154" y2="5217.39" gradientUnits="userSpaceOnUse">
<stop offset="0.216667" stop-color="#BD84FB"/>
<stop offset="1" stop-color="#4CD0C2"/>
</linearGradient>
<linearGradient id="paint6_linear_229_1515" x1="1154" y1="4751.16" x2="1154" y2="5162.84" gradientUnits="userSpaceOnUse">
<stop offset="0.216667" stop-color="#BD84FB"/>
<stop offset="1" stop-color="#4CD0C2"/>
</linearGradient>
<linearGradient id="paint7_linear_229_1515" x1="358" y1="5886.2" x2="1341" y2="6322.2" gradientUnits="userSpaceOnUse">
<stop stop-color="#F9F6FF"/>
<stop offset="0.943953" stop-color="#F1FBFE"/>
</linearGradient>
<linearGradient id="paint8_linear_229_1515" x1="-69.2163" y1="5315.95" x2="989.051" y2="5506.89" gradientUnits="userSpaceOnUse">
<stop stop-color="#F9F6FF"/>
<stop offset="0.943953" stop-color="#F1FBFE"/>
</linearGradient>
<linearGradient id="paint9_linear_229_1515" x1="156" y1="3348" x2="156" y2="4092" gradientUnits="userSpaceOnUse">
<stop offset="0.216667" stop-color="#BD84FB"/>
<stop offset="1" stop-color="#4CD0C2"/>
</linearGradient>
<linearGradient id="paint10_linear_229_1515" x1="156" y1="3393.55" x2="156" y2="4046.45" gradientUnits="userSpaceOnUse">
<stop offset="0.216667" stop-color="#BD84FB"/>
<stop offset="1" stop-color="#4CD0C2"/>
</linearGradient>
<linearGradient id="paint11_linear_229_1515" x1="156" y1="3443.24" x2="156" y2="3996.76" gradientUnits="userSpaceOnUse">
<stop offset="0.216667" stop-color="#BD84FB"/>
<stop offset="1" stop-color="#4CD0C2"/>
</linearGradient>
<linearGradient id="paint12_linear_229_1515" x1="156" y1="3501.22" x2="156" y2="3938.78" gradientUnits="userSpaceOnUse">
<stop offset="0.216667" stop-color="#BD84FB"/>
<stop offset="1" stop-color="#4CD0C2"/>
</linearGradient>
<linearGradient id="paint13_linear_229_1515" x1="-8" y1="439" x2="-8" y2="907" gradientUnits="userSpaceOnUse">
<stop stop-color="#E6D4FF" stop-opacity="0"/>
<stop offset="1" stop-color="#F0F5FF"/>
</linearGradient>
<linearGradient id="paint14_linear_229_1515" x1="1369.5" y1="17" x2="1369.5" y2="492" gradientUnits="userSpaceOnUse">
<stop stop-color="#E6D4FF" stop-opacity="0"/>
<stop offset="1" stop-color="#F0F5FF"/>
</linearGradient>
<clipPath id="clip0_229_1515">
<rect width="1280" height="8210" fill="white"/>
</clipPath>
</defs>
</svg>
